# xmcd CD database file
#
# Track frame offsets:
#	150
#	20058
#	38077
#	58447
#	84501
#	102987
#	125017
#	139386
#	160387
#	190970
#	224545
#	246532
#	266383
#	289285
#	308731
#	329501
#
# Disc length: 4777 seconds
#
# Revision: 0
# Processed by: cddbd v1.5.2PL0 Copyright (c) Steve Scherf et al.
# Submitted via: CDex 1.51
#
DISCID=0412a710
DTITLE=Kiko El Presidente - Con Lo Nuevo
DYEAR=2007
DGENRE=Perico Ripiao
TTITLE0=Vamono Pa La Playa
TTITLE1=En Navidad
TTITLE2=Me Pone Loco
TTITLE3=La Pava
TTITLE4=Dame Un Chin
TTITLE5=La Vela
TTITLE6=Me Van A Matar Por Las Mujeres
TTITLE7=El Curandero
TTITLE8=Caña Brava Feat Anthony Santos
TTITLE9=Las Mujeres
TTITLE10=Toy Loco
TTITLE11=Se Murio Martin
TTITLE12=Papalico
TTITLE13=Prostituta
TTITLE14=La Culebra Feat El Torito
TTITLE15=Todas Las Mujeres
EXTD=YEAR: 2007
EXTT0=
EXTT1=
EXTT2=
EXTT3=
EXTT4=
EXTT5=
EXTT6=
EXTT7=
EXTT8=
EXTT9=
EXTT10=
EXTT11=
EXTT12=
EXTT13=
EXTT14=
EXTT15=
PLAYORDER=
